<?xml version="1.0" standalone="no"?>
<!DOCTYPE svg PUBLIC "-//W3C//DTD SVG 1.1//EN" "http://www.w3.org/Graphics/SVG/1.1/DTD/svg11.dtd">
<svg xmlns="http://www.w3.org/2000/svg">
<metadata>Copyright (C) 2015 by original authors @ fontello.com</metadata>
<defs>
<font id="fontello" horiz-adv-x="1000" >
<font-face font-family="fontello" font-weight="400" font-stretch="normal" units-per-em="1000" ascent="850" descent="-150" />
<missing-glyph horiz-adv-x="1000" />
<glyph glyph-name="cancel-1" unicode="&#xe800;" d="m724 112q0-22-15-38l-76-76q-16-15-38-15t-38 15l-164 165-164-165q-16-15-38-15t-38 15l-76 76q-16 16-16 38t16 38l164 164-164 164q-16 16-16 38t16 38l76 76q16 16 38 16t38-16l164-164 164 164q16 16 38 16t38-16l76-76q15-15 15-38t-15-38l-164-164 164-164q15-15 15-38z" horiz-adv-x="785.7" />
<glyph glyph-name="menu" unicode="&#xe801;" d="m857 100v-71q0-15-10-25t-26-11h-785q-15 0-25 11t-11 25v71q0 15 11 25t25 11h785q15 0 26-11t10-25z m0 286v-72q0-14-10-25t-26-10h-785q-15 0-25 10t-11 25v72q0 14 11 25t25 10h785q15 0 26-10t10-25z m0 285v-71q0-15-10-25t-26-11h-785q-15 0-25 11t-11 25v71q0 15 11 26t25 10h785q15 0 26-10t10-26z" horiz-adv-x="857.1" />
<glyph glyph-name="up" unicode="&#xe802;" d="m0 264l391 586 390-586-211 0 0-414-359 0 0 414-211 0z" horiz-adv-x="781" />
<glyph glyph-name="calendar" unicode="&#xe803;" d="m0-150l0 649 893 0 0-649-893 0z m0 705l0 221 109 0 0-141 200 0 0 141 275 0 0-141 199 0 0 141 110 0 0-221-893 0z m168 139l0 156 82 0 0-156-82 0z m59-619q0-112 123-112 47 0 84 32 39 31 39 80 0 68-78 90 48 15 64 48 12 28-2 73-27 62-107 62-51 0-86-26t-37-77l72 0q0 45 49 46 43 0 45-52 0-49-84-47l0-57q48 0 68-8 23-11 23-46 0-57-54-61-43 0-47 55l-72 0z m281 146q49 14 88 47l0-297 70 0 0 371-64 0q-38-37-94-58l0-63z m135 473l0 156 82 0 0-156-82 0z" horiz-adv-x="893" />
<glyph glyph-name="agregar" unicode="&#xe804;" d="m570 637c0-108-88-196-196-196-108 0-196 88-196 196 0 109 88 196 196 196 108 0 196-87 196-196l0 0z m0 0l90-306c-26 0-50-4-73-12-49 62-126 102-213 102-147 0-265-114-265-255v-142h331c31-91 118-157 220-157 127 0 232 104 232 232 0 128-105 232-232 232l0 0z m-91-538c0 100 81 181 181 181 99 0 181-81 181-181 0-100-82-181-181-181-100 0-181 81-181 181l0 0z m0 0l213 133h-58c0-28 0-100 0-100s-62 0-93 0v-58c31 0 93 0 93 0s0-72 0-100h58c0 28 0 100 0 100h93v58h-93c0 0 0 72 0 100l0 0z m213 133" horiz-adv-x="1000" />
<glyph glyph-name="audiencia" unicode="&#xe805;" d="m408 44c0 20-16 36-36 36h-272c-20 0-36-16-36-36 0-6 2-12 4-17h-51v-75h439v75h-52c3 5 4 11 4 17z m-46 616l230-146c18-9 40-3 51 14l11 18c12 18 6 42-12 54l-224 142c-18 12-42 6-54-12l-11-18c-11-17-7-39 9-52z m621-558l0 4 0 3c0 2-1 4-1 6-1 9-3 16-5 22-5 12-11 22-20 29-2 2-4 3-6 5l-6 5c-5 3-9 6-13 9-5 3-9 7-13 10-5 3-9 6-13 9-9 6-18 12-27 18l-13 8-14 9c-9 6-18 11-27 17-9 6-18 11-27 17l-27 16-28 16-28 16-28 16-28 15-28 15c-9 5-19 11-28 15-10 5-19 10-29 15l-8-13-44 20 49 77-230 146-120-189 230-146 49 77 37-31-9-13c9-7 17-13 26-20 8-6 17-13 25-19l26-19 26-19 26-18 26-19 27-18 26-18c9-6 18-12 27-17 9-6 18-12 27-18l13-8 14-8c9-6 18-11 27-17 5-3 10-5 14-8 5-2 9-5 14-8 5-2 9-5 14-7l7-4c3-1 5-3 7-4 10-4 22-6 35-5 7 1 14 2 22 4 2 1 4 2 6 2l3 2 3 1c4 2 9 4 14 7 0 6 0 11 0 15z m-833 217l224-142c18-11 42-6 54 13l11 17c11 17 7 40-9 52l-230 146c-18 9-40 3-51-14l-11-17c-12-19-6-43 12-55z" horiz-adv-x="1000" />
<glyph glyph-name="carpeta" unicode="&#xe806;" d="m681 159v182c0 33 27 60 61 60h181v121c0 33-27 60-60 60h-70l-29 175c-2 8-6 15-13 20-6 5-15 6-23 5l-596-110c-8-1-15-6-19-12-5-7-7-15-5-23l11-55h-42c-33 0-60-27-60-60v-544c0-33 27-60 60-60h786c33 0 60 27 60 60v121h-181c-34 0-61 27-61 60z m-508 459l536 99 23-135h-552l-7 36z m780-277h-211v-182h211c17 0 30 14 30 30v121c0 17-13 31-30 31z m-121-121c-16 0-30 13-30 30 0 17 14 30 30 30 17 0 31-13 31-30 0-17-14-30-31-30z" horiz-adv-x="1000" />
<glyph glyph-name="conyuges" unicode="&#xe807;" d="m923 682h-846c-33 0-60-27-60-60v-544c0-33 27-60 60-60h846c33 0 60 27 60 60v544c0 33-27 60-60 60z m-846-60h846v-544h-846v544z m760-242h-367c-17 0-30-13-30-30 0-17 13-30 30-30h367c17 0 31 13 31 30 0 17-14 30-31 30z m0-121h-367c-17 0-30-13-30-30 0-16 13-30 30-30h367c17 0 31 14 31 30 0 17-14 30-31 30z m0 242h-367c-17 0-30-13-30-30 0-17 13-30 30-30h367c17 0 31 13 31 30 0 17-14 30-31 30z m-652-12c0-41 33-73 73-73 41 0 73 32 73 72 0 0 0 0 0 1 0 40-32 72-73 73-40 0-73-33-73-73 0 0 0 0 0 0z m75-103c-66 0-120-71-120-160 0-88 239-88 239 0 0 89-53 160-119 160z" horiz-adv-x="1000" />
<glyph glyph-name="cuenta" unicode="&#xe808;" d="m923 652h-302v-121c0-33-27-60-61-60h31c50 0 90 40 90 90 0 12 0 22 0 31h242v-665h-846v665h242c0-9 0-19 0-30 0-51 40-91 90-91h31c-34 0-61 27-61 60v121h-302c-33 0-60-27-60-60v-665c0-33 27-60 60-60h846c33 0 60 27 60 60v665c0 33-27 60-60 60z m-86-423h-367c-17 0-30-13-30-30 0-17 13-30 30-30h367c17 0 31 13 31 30 0 17-14 30-31 30z m0-121h-367c-17 0-30-13-30-30 0-16 13-30 30-30h367c17 0 31 14 31 30 0 17-14 30-31 30z m-367 182h367c17 0 31 13 31 30 0 16-14 30-31 30h-367c-17 0-30-14-30-30 0-17 13-30 30-30z m-285 47c0-40 33-72 73-72s73 32 73 72v1c0 40-32 72-73 73-40-1-73-33-73-74 0 1 0 0 0 0z m75-102c-66 0-120-71-120-160 0-88 239-88 239 0 0 89-53 160-119 160z m119 296c0-33 27-60 61-60h120c34 0 61 27 61 60v121 121c0 33-27 60-61 60h-120c-34 0-61-27-61-60v-121-121z m181 0h-120v242h120v-242z" horiz-adv-x="1000" />
<glyph glyph-name="descarga" unicode="&#xe809;" d="m500 124l322 323h-193v386h-258l1-386h-194l322-323z m-387-128v-129h774v129 129h-129v-129h-516v129h-129v-129z" horiz-adv-x="1000" />
<glyph glyph-name="email" unicode="&#xe80a;" d="m500 212l-119 105-342-293c12-12 29-19 47-19h828c18 0 35 7 47 19l-342 293-119-105z m0 0l461 464c-12 12-29 19-47 19h-828c-18 0-35-7-47-19l461-395 461 395z m461 464l-944-41v-574l334 284-334 290z m-944-41l633-290 333-284v574l-333-290z m633-290" horiz-adv-x="1000" />
<glyph glyph-name="facebook" unicode="&#xe80b;" d="m585 350h-54v-195h-80v195h-40v67h40v40c0 55 22 88 87 88h54v-67h-34c-25 0-27-10-27-27l0-34h61l-7-67z m-85 483c267 0 483-216 483-483s-216-483-483-483c-266 0-483 217-483 483s217 483 483 483z m0-920c241 0 437 196 437 437s-196 437-437 437c-241 0-437-196-437-437s196-437 437-437z" horiz-adv-x="1000" />
<glyph glyph-name="firma" unicode="&#xe80c;" d="m138 713v-61-483l8-23 112-279 121 302 0 0c0 0 0 0 0 1v482 61c0 66-54 120-121 120s-120-54-120-120z m60 0c0 33 27 60 60 60 34 0 61-27 61-60v-61h-121v61z m60-684l-31 78-12 30-1 3 44 22 44-22 0-3-13-30-31-78z m519 624l-57 146 0 0c-3 19-19 34-39 34-19 0-35-15-39-34l0 0-57-146-25-61v-605c0-66 55-120 121-120s121 54 121 120c33 0 61 28 61 61v181c0 34-28 61-61 61v302l-25 61z m-56-22l16-39h-111l15 39 9 21 31 79 32-79 8-21z" horiz-adv-x="1000" />
<glyph glyph-name="formulario" unicode="&#xe80d;" d="m861 833h-722c-31 0-56-28-56-64v-838c0-35 25-64 56-64h722c31 0 56 29 56 64v838c0 36-25 64-56 64z m0-902h-722v838h722v-838z m-583 387h444c16 0 28 14 28 32 0 18-12 32-28 32h-444c-16 0-28-14-28-32 0-18 12-32 28-32z m0 193h444c16 0 28 15 28 32 0 18-12 33-28 33h-444c-16 0-28-15-28-33 0-17 12-32 28-32z m0-387h444c16 0 28 15 28 33 0 17-12 32-28 32h-444c-16 0-28-14-28-32 0-18 12-33 28-33z" horiz-adv-x="1000" />
<glyph glyph-name="hora" unicode="&#xe80e;" d="m158 692c-189-189-189-495 0-684s495-189 684 0c189 189 189 495 0 684-189 189-495 189-684 0z m599-372h-258c0 0-1 0-1 0-18 0-32 14-32 32v324c0 18 14 32 32 32 18 0 32-14 32-32v-291h227c18 0 32-15 32-33 0-18-14-32-32-32z" horiz-adv-x="1000" />
<glyph glyph-name="ingreso" unicode="&#xe80f;" d="m412 102l400 231c6 3 10 10 10 17 0 7-4 14-10 18l-400 230c-6 3-14 3-20 0-6-4-10-11-10-18v-107h-345c-11 0-20-9-20-20v-206c0-11 9-20 20-20h345v-107c0-7 4-14 10-18 3-1 7-2 10-2 4 0 7 1 10 2l0 0z m0 0l422 731h-413c-11 0-20-9-20-20v-60c0-12 9-21 20-21h413c26 0 48-21 48-48v-668c0-27-22-48-48-48h-413c-11 0-20-9-20-21v-60c0-11 9-20 20-20h413c82 0 149 67 149 149v668c0 82-67 149-149 149l0 0z m422 731" horiz-adv-x="1000" />
<glyph glyph-name="linkedin" unicode="&#xe810;" d="m390 170h-76v245h76v-245z m-40 275h0c-28 0-46 19-46 42 0 25 19 43 47 43 28 0 45-18 46-43 0-23-18-42-47-42z m346-275h-87v127c0 33-13 55-43 55-23 0-35-15-41-30-3-5-2-12-2-20v-132h-86c0 0 1 224 0 245h86v-39c5 17 32 41 76 41 54 0 97-35 97-111v-136z m-196 663c267 0 483-216 483-483s-216-483-483-483c-266 0-483 217-483 483s217 483 483 483z m0-920c241 0 437 196 437 437s-196 437-437 437c-241 0-437-196-437-437s196-437 437-437z" horiz-adv-x="1000" />
<glyph glyph-name="matrimonio" unicode="&#xe811;" d="m802 773h-181c0 33-27 60-61 60h-120c-34 0-61-27-61-60h-181c-33 0-60-27-60-60v-786c0-33 27-60 60-60h604c33 0 61 27 61 60v786c0 33-28 60-61 60z m0-786h-604v726h121c0-34 27-61 60-61h61 121 60c33 0 60 27 60 61h121v-726z m-544 514c0-17 14-30 31-30h423c16 0 30 13 30 30 0 17-14 30-30 30h-423c-17 0-31-13-31-30z m454-151h-423c-17 0-31-13-31-30 0-17 14-30 31-30h423c16 0 30 13 30 30 0 17-14 30-30 30z m0-181h-423c-17 0-31-14-31-30 0-17 14-31 31-31h423c16 0 30 14 30 31 0 16-14 30-30 30z" horiz-adv-x="1000" />
<glyph glyph-name="password" unicode="&#xe812;" d="m819 443h-19v88c0 163-129 299-291 302-5 0-13 0-18 0-162-3-291-139-291-302v-88h-19c-29 0-52-30-52-67v-442c0-37 23-67 52-67h638c29 0 53 30 53 67v442c0 37-24 67-53 67l0 0z m-259-288v-133c0-15-13-29-28-29h-64c-15 0-28 14-28 29v133c-15 15-23 35-23 58 0 42 33 78 74 80 5 0 13 0 18 0 42-2 74-38 74-80 0-23-8-43-23-58l0 0z m116 288h-352v88c0 97 79 178 176 178 97 0 176-81 176-178v-88z m0 0" horiz-adv-x="1000" />
<glyph glyph-name="persona" unicode="&#xe813;" d="m681 652c0 97-84 181-181 181-97 0-181-84-181-181 0-97 84-181 181-181 97 0 181 84 181 181z m-181-242c-159 0-302-171-302-384 0-213 604-213 604 0 0 213-143 384-302 384z" horiz-adv-x="1000" />
<glyph glyph-name="personas" unicode="&#xe814;" d="m440 682c0 81-71 151-151 151-81 0-151-70-151-151 0-81 70-151 151-151 80 0 151 70 151 151z m105-574c0 242-125 363-264 363-139 0-264-121-264-363 0-165 528-165 528 0z m182 306c80 0 151 70 151 151 0 81-71 151-151 151-81 0-151-70-151-151 0-81 70-151 151-151z m-8-61c-42 0-82-12-118-34 22-59 35-129 35-211 0-81-54-145-147-181 115-98 494-77 494 64 0 241-125 362-264 362z" horiz-adv-x="1000" />
<glyph glyph-name="registrate" unicode="&#xe815;" d="m651 199l-52 157-300 300-105-105 300-300 157-52z m-596 596c-29-29-29-76 0-105l77-77 105 105-77 77c-29 29-76 29-105 0z m853-153h-413l58-59h355v-641h-641v355l-59 58v-413c0-33 27-59 59-59h641c33 0 59 26 59 59v641c0 33-26 59-59 59z" horiz-adv-x="1000" />
<glyph glyph-name="registro" unicode="&#xe816;" d="m656 194l-54 162-310 311-109-109 311-310 162-54z m-617 617c-30-30-30-79 0-109l80-80 109 109-80 80c-30 30-79 30-109 0z m884-159h-428l60-60h368v-665h-665v368l-60 60v-428c0-33 27-60 60-60h665c33 0 60 27 60 60v665c0 33-27 60-60 60z" horiz-adv-x="1000" />
<glyph glyph-name="tramitacion" unicode="&#xe817;" d="m79-102h560c35 0 63 28 63 63v84c13 6 25 14 37 23l191-192c6-6 14-9 22-9 8 0 16 3 22 9 12 13 12 32 0 44l-191 192c27 36 43 80 43 129 0 87-51 161-124 196v333c0 35-28 63-63 63h-560c-34 0-62-28-62-63v-809c0-35 28-63 62-63z m529 187c-85 0-155 70-155 156 0 86 69 156 155 156 86 0 156-70 156-156 0-86-70-156-156-156z m-62 499h-374c-17 0-31 14-31 31 0 17 14 31 31 31h374c17 0 31-14 31-31 0-17-14-31-31-31z m-374-125h374c6 0 11-2 16-5-41-9-77-29-106-57h-284c-17 0-31 14-31 31 0 17 14 31 31 31z m0-187h221c-1-10-3-20-3-31 0-11 2-21 3-31h-221c-17 0-31 14-31 31 0 17 14 31 31 31z" horiz-adv-x="1000" />
<glyph glyph-name="twitter" unicode="&#xe818;" d="m668 424c0-4 0-7 0-11 0-115-87-247-247-247-48 0-94 15-132 39 7 0 13-1 20-1 41 0 78 14 108 37-38 1-70 26-81 60 5-1 11-1 16-1 8 0 16 1 23 3-39 8-69 43-69 85 0 0 0 0 0 1 11-7 25-11 39-11-23 16-39 42-39 72 0 16 5 31 12 44 43-53 107-87 179-91-2 6-3 13-3 20 0 48 39 86 87 86 25 0 47-10 63-27 20 4 38 11 55 21-6-20-20-37-38-48 18 2 34 7 50 14-12-18-27-33-43-45z m-168 409c267 0 483-216 483-483s-216-483-483-483c-266 0-483 217-483 483s217 483 483 483z m0-920c241 0 437 196 437 437s-196 437-437 437c-241 0-437-196-437-437s196-437 437-437z" horiz-adv-x="1000" />
<glyph glyph-name="usuario" unicode="&#xe819;" d="m464 354c-83 17-145 90-145 177 0 67 36 124 89 156 17-37 51-74 99-102 63-36 129-45 172-27 1-9 2-18 2-27 0-87-62-160-144-177 116 17 205 117 205 238 0 133-109 241-242 241-133 0-242-108-242-241 0-121 90-221 206-238l0 0z m0 0l217-64h-30c0-84-68-151-151-151-83 0-151 67-151 151h-30c-100 0-181-81-181-182v-181c0-33 27-60 60-60h604c34 0 61 27 61 60v181c0 101-82 182-182 182l0 0z m217-64" horiz-adv-x="1000" />
<glyph glyph-name="visitas" unicode="&#xe81a;" d="m980 663c-8 25-30 43-57 43h-60v-60-34c0-50-41-90-91-90-50 0-91 40-91 90v34 60h-362v-60-34c0-49-41-90-91-90-50 0-91 41-91 90v34 60h-60c-27 0-49-18-57-42h-3v-18-188-531c0-33 27-60 60-60h846c33 0 60 27 60 60v531 188 17h-3z m-57-736h-846v483h846v-483z m-695 655c17 0 30 14 30 30v191c0 17-13 30-30 30-17 0-30-13-30-30v-191c0-16 13-30 30-30z m544 0c17 0 30 14 30 30v191c0 17-13 30-30 30-17 0-30-13-30-30v-191c0-16 13-30 30-30z" horiz-adv-x="1000" />
</font>
</defs>
</svg>
